<svg width="127" height="129" viewBox="0 0 127 129" fill="none" xmlns="http://www.w3.org/2000/svg">
<rect width="127" height="129" rx="63.5" fill="black"/>
<path d="M31 41C31 36.0294 35.0294 32 40 32H87C91.9706 32 96 36.0294 96 41V88C96 92.9706 91.9706 97 87 97H40C35.0294 97 31 92.9706 31 88V41ZM72.1186 84.2445C70.7484 85.0389 70.2081 86.8049 71.2552 87.9933C73.3077 90.323 76.4681 91.9083 80.8333 91.9083C86.6111 91.9083 90.9444 88.9111 90.9444 83.3861C90.9444 78.2944 88.0194 76.0194 82.8194 73.7806L81.3028 73.1306C78.6667 72.0111 77.5472 71.2528 77.5472 69.4472C77.5472 67.9667 78.6667 66.8111 80.4722 66.8111C81.198 66.8111 81.8225 66.9441 82.3802 67.2365C83.8335 67.9986 85.5761 68.6717 86.9432 67.7638C88.1786 66.9433 88.6067 65.2578 87.5813 64.1864C85.7566 62.2799 83.4189 61.5028 80.4722 61.5028C75.0194 61.5028 71.5167 64.9694 71.5167 69.5556C71.5167 74.5389 74.4417 76.8861 78.8472 78.7639L80.3639 79.4139C83.1806 80.6417 84.8417 81.4 84.8417 83.4944C84.8417 85.2278 83.2167 86.4917 80.6889 86.4917C78.9043 86.4917 77.5677 85.9412 76.5039 85.0383C75.2624 83.9846 73.5274 83.4278 72.1186 84.2445ZM67.1111 64.5C67.1111 63.0042 65.8985 61.7917 64.4028 61.7917H51.7639C50.2681 61.7917 49.0556 63.0042 49.0556 64.5C49.0556 65.9958 50.2681 67.2083 51.7639 67.2083C53.2597 67.2083 54.4722 68.4209 54.4722 69.9167V90.2292C54.4722 91.9742 55.8869 93.3889 57.6319 93.3889C59.377 93.3889 60.7917 91.9742 60.7917 90.2292V70.3681C60.7917 68.623 62.2063 67.2083 63.9514 67.2083H64.4028C65.8985 67.2083 67.1111 65.9958 67.1111 64.5Z" fill="white"/>
</svg>
