<svg width="127" height="129" viewBox="0 0 127 129" fill="none" xmlns="http://www.w3.org/2000/svg">
<rect width="127" height="129" rx="63.5" fill="black"/>
<path d="M58.7333 32C74.056 32 86.4667 38.4353 86.4667 46.3805C86.4667 54.3258 74.056 60.7611 58.7333 60.7611C43.4107 60.7611 31 54.3258 31 46.3805C31 38.4353 43.4107 32 58.7333 32ZM31 53.5708C31 61.516 43.4107 67.9513 58.7333 67.9513C74.056 67.9513 86.4667 61.516 86.4667 53.5708V64.6438L83 64.3562C74.0213 64.3562 66.36 70.2522 63.448 78.521L58.7333 78.7367C43.4107 78.7367 31 72.3014 31 64.3562V53.5708ZM31 71.5465C31 79.4917 43.4107 85.927 58.7333 85.927H62.2C62.2 89.7019 63.136 93.2611 64.8 96.3529L58.7333 96.7124C43.4107 96.7124 31 90.2771 31 82.3319V71.5465ZM79.5333 97L70 86.2146L74.0213 82.0443L79.5333 87.7246L91.9787 74.854L96 79.9231L79.5333 97Z" fill="white"/>
</svg>
