<svg width="25" height="24" viewBox="0 0 25 24" fill="none" xmlns="http://www.w3.org/2000/svg">
<path d="M12.5 0C5.62499 0 0 5.40964 0 12.0723C0 18.0964 4.57499 23.0964 10.55 24V15.5663H7.37499V12.0723H10.55V9.40964C10.55 6.38554 12.4125 4.72289 15.275 4.72289C16.6375 4.72289 18.0625 4.95181 18.0625 4.95181V7.92771H16.4875C14.9375 7.92771 14.45 8.85542 14.45 9.80723V12.0723H17.925L17.3625 15.5663H14.45V24C17.3955 23.5516 20.0777 22.103 22.0124 19.9157C23.947 17.7284 25.0067 14.9466 25 12.0723C25 5.40964 19.375 0 12.5 0Z" fill="white"/>
</svg>
