<svg width="22" height="20" viewBox="0 0 22 20" fill="none" xmlns="http://www.w3.org/2000/svg">
<path d="M10.4774 9.47368L16.5116 1.70526C16.6818 1.48582 16.7585 1.20764 16.7252 0.931505C16.6918 0.65537 16.551 0.403733 16.3335 0.231579C16.1577 0.0895218 15.9409 0.00830069 15.7154 0H1.04878C0.812474 0.00137727 0.583573 0.0829889 0.399256 0.231579C0.181806 0.403733 0.0410139 0.65537 0.00764295 0.931505C-0.025728 1.20764 0.0510358 1.48582 0.221161 1.70526L6.28688 9.47368V15.6526C6.26792 15.8119 6.28544 15.9734 6.33809 16.1248C6.39075 16.2762 6.47714 16.4136 6.59068 16.5263L8.68592 18.6316C8.88221 18.8276 9.14773 18.9377 9.42449 18.9377C9.70126 18.9377 9.96678 18.8276 10.1631 18.6316C10.2785 18.5198 10.3668 18.3829 10.4213 18.2315C10.4758 18.08 10.495 17.918 10.4774 17.7579V9.47368ZM13.619 14.7368L17.8107 20L22 14.7368H13.619Z" fill="white"/>
</svg>
