<svg width="127" height="129" viewBox="0 0 127 129" fill="none" xmlns="http://www.w3.org/2000/svg">
<rect width="127" height="129" rx="63.5" fill="black"/>
<path d="M85.1667 86.1667H63.5V65.2583C61.1167 67.4611 57.975 68.8333 54.4722 68.8333C47.1056 68.8333 41.1111 62.8389 41.1111 55.4722C41.1111 51.9286 42.5188 48.5302 45.0245 46.0245C47.5302 43.5188 50.9286 42.1111 54.4722 42.1111C61.8389 42.1111 67.8333 48.1056 67.8333 55.4722C67.8333 58.975 66.4611 62.1167 64.2583 64.5H85.1667M88.7778 32H38.2222C34.2139 32 31 35.2139 31 39.2222V89.7778C31 91.6932 31.7609 93.5302 33.1153 94.8847C34.4698 96.2391 36.3068 97 38.2222 97H88.7778C90.6932 97 92.5302 96.2391 93.8847 94.8847C95.2391 93.5302 96 91.6932 96 89.7778V39.2222C96 35.2139 92.75 32 88.7778 32Z" fill="white"/>
</svg>
