<svg width="19" height="16" viewBox="0 0 19 16" fill="none" xmlns="http://www.w3.org/2000/svg">
<path d="M19 7.2C19 6.312 18.2227 5.6 17.2727 5.6H11.8145L12.6436 1.944C12.6609 1.864 12.6695 1.776 12.6695 1.688C12.6695 1.36 12.5227 1.056 12.2895 0.84L11.3741 0L5.69136 5.264C5.37182 5.56 5.18182 5.96 5.18182 6.4V14.4C5.18182 14.8243 5.3638 15.2313 5.68772 15.5314C6.01165 15.8314 6.45099 16 6.90909 16H14.6818C15.3986 16 16.0118 15.6 16.2709 15.024L18.8791 9.384C18.9568 9.2 19 9.008 19 8.8V7.2ZM0 16H3.45455V6.4H0V16Z" fill="#2B2828"/>
</svg>
