<svg width="160" height="68" viewBox="0 0 160 68" fill="none" xmlns="http://www.w3.org/2000/svg">
<path fill-rule="evenodd" clip-rule="evenodd" d="M32.4663 2.06087C38.3091 1.6918 44.1821 2.99563 49.2381 6.11962C54.4291 9.32702 58.5215 14.1682 61.2452 19.8428C64.0469 25.68 65.4395 32.1806 64.8769 38.7019C64.2954 45.442 62.3286 52.224 58.0202 57.2218C53.7616 62.1617 47.5422 64.4524 41.3872 65.95C35.5034 67.3817 29.4262 67.4322 23.6463 65.5857C17.8946 63.7482 12.6967 60.333 8.75944 55.5263C4.82042 50.7175 2.64142 44.73 1.45099 38.4893C0.20582 31.9617 -1.21389 24.7763 1.77633 18.9182C4.7287 13.1344 11.4221 11.1869 16.9325 8.16024C21.9362 5.41181 26.8399 2.41627 32.4663 2.06087Z" fill="#FDB8CD"/>
<rect x="2" y="7" width="61" height="61" rx="30.5" fill="#FDB8CD"/>
<path d="M61.975 53C60.265 53 59.05 52.67 58.33 52.01C57.64 51.32 57.295 50.315 57.295 48.995C57.295 48.605 57.31 47.99 57.34 47.15C57.4 46.28 57.475 45.26 57.565 44.09C57.655 42.92 57.745 41.645 57.835 40.265C57.955 38.885 58.075 37.475 58.195 36.035C58.345 34.265 58.465 32.75 58.555 31.49C58.675 30.2 58.765 29.105 58.825 28.205C58.885 27.275 58.93 26.51 58.96 25.91C59.02 25.28 59.05 24.74 59.05 24.29C59.08 23.81 59.095 23.375 59.095 22.985C59.125 22.595 59.14 22.175 59.14 21.725C59.14 21.485 59.215 21.32 59.365 21.23C59.515 21.11 59.665 21.05 59.815 21.05C60.595 21.05 61.45 21.035 62.38 21.005C63.31 20.945 64.24 20.885 65.17 20.825C66.1 20.765 67 20.72 67.87 20.69C68.74 20.63 69.505 20.6 70.165 20.6C72.085 20.6 73.735 20.84 75.115 21.32C76.495 21.77 77.605 22.445 78.445 23.345C79.315 24.215 79.945 25.28 80.335 26.54C80.755 27.8 80.965 29.24 80.965 30.86C80.965 32.63 80.725 34.34 80.245 35.99C79.795 37.61 79.075 39.05 78.085 40.31C77.095 41.57 75.82 42.575 74.26 43.325C72.7 44.075 70.84 44.45 68.68 44.45C67.39 44.45 66.295 44.315 65.395 44.045L64.765 52.325C64.735 52.565 64.675 52.745 64.585 52.865C64.495 52.955 64.315 53 64.045 53H61.975ZM69.265 27.35C68.875 27.35 68.44 27.38 67.96 27.44C67.48 27.47 66.97 27.515 66.43 27.575C66.37 28.835 66.295 30.365 66.205 32.165C66.115 33.965 65.995 35.855 65.845 37.835C66.295 37.955 66.73 38.045 67.15 38.105C67.6 38.135 68.005 38.15 68.365 38.15C69.415 38.15 70.255 37.91 70.885 37.43C71.545 36.92 72.055 36.305 72.415 35.585C72.775 34.865 73.015 34.115 73.135 33.335C73.255 32.555 73.315 31.88 73.315 31.31C73.315 30.02 73.015 29.045 72.415 28.385C71.845 27.695 70.795 27.35 69.265 27.35ZM88.4301 53C86.7501 53 85.5501 52.67 84.8301 52.01C84.1101 51.35 83.7501 50.405 83.7501 49.175C83.7501 48.575 83.7951 47.555 83.8851 46.115C83.9751 44.645 84.0951 42.98 84.2451 41.12C84.3951 39.26 84.5451 37.295 84.6951 35.225C84.8451 33.155 84.9951 31.205 85.1451 29.375C85.2951 27.545 85.4151 25.94 85.5051 24.56C85.5951 23.18 85.6401 22.235 85.6401 21.725C85.6401 21.275 85.8801 21.05 86.3601 21.05H102.2C102.38 21.05 102.545 21.095 102.695 21.185C102.845 21.275 102.92 21.44 102.92 21.68L102.74 24.335C102.68 25.235 102.425 25.97 101.975 26.54C101.555 27.08 100.67 27.35 99.3201 27.35H93.1101L92.6601 33.695H99.0501C99.2301 33.695 99.3951 33.74 99.5451 33.83C99.6951 33.92 99.7701 34.085 99.7701 34.325L99.5901 36.98C99.5301 37.88 99.2751 38.615 98.8251 39.185C98.4051 39.725 97.5201 39.995 96.1701 39.995H92.2551L91.7601 46.7H101.66C101.84 46.7 102.005 46.76 102.155 46.88C102.305 46.97 102.38 47.12 102.38 47.33L102.2 49.985C102.14 50.885 101.885 51.62 101.435 52.19C101.015 52.73 100.13 53 98.7801 53H88.4301ZM120.469 21.05C121.219 21.05 121.834 21.2 122.314 21.5C122.824 21.77 123.244 22.145 123.574 22.625C123.904 23.075 124.174 23.6 124.384 24.2C124.594 24.8 124.774 25.415 124.924 26.045C126.124 30.905 127.114 34.91 127.894 38.06C128.674 41.21 129.289 43.76 129.739 45.71C130.189 47.63 130.504 49.055 130.684 49.985C130.864 50.915 130.954 51.56 130.954 51.92C130.954 52.34 130.849 52.625 130.639 52.775C130.459 52.925 130.159 53 129.739 53H127.444C126.154 53 125.119 52.85 124.339 52.55C123.589 52.22 123.004 51.755 122.584 51.155C122.194 50.555 121.909 49.835 121.729 48.995C121.549 48.125 121.399 47.15 121.279 46.07H113.449L111.964 52.28C111.814 52.76 111.469 53 110.929 53H108.544C108.064 53 107.569 52.955 107.059 52.865C106.549 52.745 106.084 52.565 105.664 52.325C105.274 52.085 104.944 51.785 104.674 51.425C104.404 51.035 104.269 50.57 104.269 50.03C104.269 49.37 104.479 48.29 104.899 46.79C105.319 45.29 105.844 43.595 106.474 41.705C107.134 39.785 107.854 37.79 108.634 35.72C109.444 33.62 110.224 31.64 110.974 29.78C111.724 27.92 112.399 26.285 112.999 24.875C113.629 23.465 114.109 22.475 114.439 21.905C114.679 21.485 114.889 21.245 115.069 21.185C115.279 21.095 115.654 21.05 116.194 21.05H120.469ZM115.069 39.545H120.244L118.354 27.665L115.069 39.545ZM158.77 50.075C158.77 50.315 158.62 50.63 158.32 51.02C158.05 51.38 157.66 51.74 157.15 52.1C156.67 52.46 156.1 52.775 155.44 53.045C154.81 53.315 154.135 53.45 153.415 53.45C152.305 53.45 151.33 53.105 150.49 52.415C149.65 51.695 148.885 50.72 148.195 49.49C147.535 48.26 146.92 46.805 146.35 45.125C145.78 43.415 145.195 41.57 144.595 39.59L142.885 40.715L142.03 52.325C142 52.565 141.94 52.745 141.85 52.865C141.76 52.955 141.58 53 141.31 53H138.835C137.125 53 135.91 52.67 135.19 52.01C134.5 51.32 134.155 50.315 134.155 48.995C134.155 48.575 134.17 47.945 134.2 47.105C134.26 46.235 134.335 45.23 134.425 44.09C134.515 42.92 134.605 41.645 134.695 40.265C134.815 38.885 134.935 37.475 135.055 36.035C135.265 33.155 135.43 30.875 135.55 29.195C135.7 27.515 135.805 26.195 135.865 25.235C135.925 24.245 135.97 23.525 136 23.075C136.03 22.595 136.045 22.145 136.045 21.725C136.045 21.275 136.285 21.05 136.765 21.05H139.24C140.2 21.05 140.965 21.155 141.535 21.365C142.135 21.545 142.6 21.815 142.93 22.175C143.26 22.535 143.485 22.985 143.605 23.525C143.725 24.035 143.785 24.635 143.785 25.325C143.785 26.015 143.74 27.14 143.65 28.7C143.59 30.23 143.485 31.955 143.335 33.875C144.355 32.615 145.57 31.055 146.98 29.195C148.42 27.335 150.16 25.04 152.2 22.31C152.29 22.19 152.41 22.04 152.56 21.86C152.74 21.65 152.92 21.455 153.1 21.275C153.31 21.095 153.52 20.945 153.73 20.825C153.97 20.675 154.195 20.6 154.405 20.6C154.795 20.6 155.245 20.81 155.755 21.23C156.265 21.62 156.745 22.115 157.195 22.715C157.645 23.285 158.02 23.885 158.32 24.515C158.65 25.115 158.815 25.625 158.815 26.045C158.815 26.915 158.035 28.22 156.475 29.96C154.915 31.67 152.68 33.65 149.77 35.9C150.28 36.77 150.865 37.715 151.525 38.735C152.185 39.725 152.845 40.745 153.505 41.795C154.165 42.815 154.81 43.82 155.44 44.81C156.07 45.77 156.625 46.64 157.105 47.42C157.615 48.17 158.02 48.785 158.32 49.265C158.62 49.745 158.77 50.015 158.77 50.075Z" fill="#2B2828"/>
<path d="M18.4414 45.2656C20.0977 46.1094 21.832 46.7422 23.6445 47.1641C25.457 47.5859 27.1445 47.7969 28.707 47.7969C30.5039 47.7969 31.8164 47.5391 32.6445 47.0234C33.4883 46.5078 33.9102 45.8047 33.9102 44.9141C33.9102 44.6328 33.8555 44.3438 33.7461 44.0469C33.6523 43.75 33.457 43.4609 33.1602 43.1797C32.8789 42.8828 32.4805 42.5938 31.9648 42.3125C31.4648 42.0156 30.8086 41.7266 29.9961 41.4453L25.8008 40.0156C22.8008 38.9844 20.543 37.5938 19.0273 35.8438C17.5117 34.0781 16.7539 31.9844 16.7539 29.5625C16.7539 28 17.082 26.5 17.7383 25.0625C18.3945 23.6094 19.3867 22.3359 20.7148 21.2422C22.043 20.1328 23.7148 19.25 25.7305 18.5938C27.7617 17.9375 30.1367 17.6094 32.8555 17.6094C34.1992 17.6094 35.4883 17.6875 36.7227 17.8438C37.957 18 39.1133 18.2031 40.1914 18.4531C41.2852 18.7031 42.2852 18.9922 43.1914 19.3203C44.0977 19.6328 44.8945 19.9453 45.582 20.2578L43.0508 24.8281C42.5508 24.5156 42.0195 24.2422 41.457 24.0078C40.9102 23.7734 40.3555 23.5781 39.793 23.4219C39.2461 23.2656 38.707 23.1484 38.1758 23.0703C37.6445 22.9922 37.1602 22.9531 36.7227 22.9531C35.9727 22.9531 35.3164 23.0547 34.7539 23.2578C34.1914 23.4453 33.7148 23.7031 33.3242 24.0312C32.9492 24.3438 32.6602 24.7031 32.457 25.1094C32.2695 25.5 32.1758 25.8906 32.1758 26.2812C32.1758 26.625 32.2539 26.9609 32.4102 27.2891C32.582 27.6016 32.8633 27.9141 33.2539 28.2266C33.6602 28.5234 34.1836 28.8281 34.8242 29.1406C35.4805 29.4375 36.293 29.75 37.2617 30.0781L40.0742 31.0156C43.1211 32.0312 45.4492 33.4297 47.0586 35.2109C48.668 36.9922 49.4727 39.1484 49.4727 41.6797C49.4727 43.3984 49.082 44.9844 48.3008 46.4375C47.5352 47.8906 46.3867 49.1484 44.8555 50.2109C43.3242 51.2578 41.418 52.0781 39.1367 52.6719C36.8711 53.25 34.2383 53.5391 31.2383 53.5391C29.8008 53.5391 28.4102 53.4609 27.0664 53.3047C25.7383 53.1641 24.4336 52.9453 23.1523 52.6484C21.8867 52.3516 20.6367 51.9766 19.4023 51.5234C18.168 51.0703 16.9336 50.5391 15.6992 49.9297L18.4414 45.2656Z" fill="#2B2828"/>
<path d="M41.1103 23.9318C41.094 23.9318 41.0581 23.9189 40.9414 23.8397C40.8938 23.8074 40.8342 23.762 40.7873 23.7356C40.7353 23.7063 40.7014 23.6833 40.6328 23.6457C40.5767 23.6149 40.5249 23.6014 40.4855 23.5883C40.4756 23.5851 40.4643 23.5818 40.4633 23.5834C40.457 23.5935 40.5225 23.6159 40.6487 23.6607C40.7333 23.6908 40.8639 23.7234 40.9355 23.7425C41.0347 23.7691 41.087 23.7845 41.1176 23.805C41.1228 23.8085 41.1201 23.8172 41.0982 23.8205C40.9808 23.8385 40.9566 23.8173 40.9459 23.8117C40.9217 23.7987 40.9124 23.7716 40.905 23.7691C40.882 23.7614 40.9465 23.814 40.9776 23.841C41.0034 23.8634 41.03 23.8745 41.0554 23.8925C41.0795 23.9096 41.0954 23.9367 41.12 23.9522C41.1464 23.969 41.1691 23.9857 41.1952 24.0062C41.2034 24.0119 41.2131 24.0184 41.2214 24.0234C41.2296 24.0283 41.2361 24.0316 41.2526 24.0447" stroke="#2B2828" stroke-width="0.05" stroke-linecap="round"/>
<path d="M38.2705 22.989C38.2705 22.9874 38.2705 22.9858 38.3226 22.9944C38.3748 23.0029 38.479 23.0216 38.5825 23.0421C38.686 23.0626 38.7856 23.0844 38.8439 23.0979C38.9022 23.1115 38.9162 23.1162 39.0261 23.1427C39.136 23.1692 39.3414 23.2174 39.4542 23.2431C39.5807 23.2718 39.6141 23.2781 39.6634 23.2922C39.6938 23.3009 39.736 23.3094 39.7989 23.3259C39.9447 23.3641 40.0401 23.3913 40.0628 23.396C40.1089 23.4055 40.1484 23.4226 40.1885 23.436C40.2268 23.4508 40.2726 23.4651 40.3087 23.4738C40.323 23.4777 40.3293 23.4808 40.3357 23.484" stroke="#2B2828" stroke-width="0.05" stroke-linecap="round"/>
<path d="M46.0939 24.3423C45.9869 24.0556 45.9385 23.7679 45.9489 23.4791C45.963 23.182 46.0488 22.8998 46.2062 22.6326C46.3674 22.357 46.6043 22.0983 46.9171 21.8564C47.2299 21.6146 47.6363 21.4003 48.1365 21.2136C48.6305 21.0292 49.0749 20.9258 49.4697 20.9036C49.8705 20.879 50.2191 20.9191 50.5153 21.024C50.8093 21.1227 51.0559 21.2808 51.2553 21.4983C51.4584 21.7074 51.6135 21.9553 51.7205 22.2419C51.8298 22.5347 51.8773 22.8296 51.8632 23.1268C51.8528 23.4156 51.7701 23.6966 51.615 23.9699C51.4577 24.2372 51.2195 24.4928 50.9007 24.737C50.5879 24.9788 50.1845 25.1919 49.6904 25.3764C49.1903 25.5631 48.7428 25.6676 48.3481 25.6898C47.9534 25.7121 47.606 25.675 47.3059 25.5785C47.0096 25.4737 46.7599 25.3167 46.5568 25.1077C46.3575 24.8902 46.2032 24.6351 46.0939 24.3423Z" fill="#CBCEF7"/>
<path d="M46.9447 21.0389L44.9525 20.5962C44.6671 20.5328 44.3986 20.4093 44.1647 20.2339C43.2561 19.5524 41.9671 19.7366 41.2856 20.6452L41.2179 20.7355C40.3614 21.8775 40.8223 23.5211 42.1477 24.0513L43.2833 24.5055C44.0727 24.8213 44.6982 25.4468 45.014 26.2362L45.028 26.2713C45.3427 27.058 45.9571 27.6875 46.7359 28.0213L48.7846 28.8993C48.941 28.9663 49.1024 29.0207 49.2675 29.062L50.2272 29.3019C50.7188 29.4248 51.2388 29.2808 51.597 28.9225C51.8676 28.652 52.0195 28.2851 52.0195 27.9025V27.4222C52.0195 27.1426 51.9744 26.8647 51.886 26.5994L51.3598 25.0209C51.1347 24.3456 50.7919 23.7155 50.3473 23.1597C49.488 22.0856 48.2875 21.3373 46.9447 21.0389Z" fill="#2B2828" stroke="#2B2828"/>
<path d="M26.0776 42.1436C26.2279 42.1585 26.5907 42.2189 26.9241 42.3247C27.2032 42.4134 27.7387 42.5514 28.1579 42.6052C28.4236 42.6393 29.3245 42.7929 29.9514 42.9228C30.5948 43.0561 31.4343 43.3688 31.9255 43.5202C32.9733 43.8433 33.3117 44.1553 33.6824 44.4507C33.8 44.5444 33.9311 44.6839 34.0006 44.8133C34.2197 45.2216 33.9038 45.6384 33.7905 45.9118C33.6795 46.1798 33.4506 46.3659 33.2458 46.5403C33.0263 46.7272 32.6641 46.9254 32.3233 47.1681C31.7708 47.5616 31.4525 47.5775 30.7502 47.8643C30.3298 48.036 29.9539 48.1224 29.389 48.2807C29.0396 48.3786 28.4063 48.4985 27.7674 48.6204C27.1284 48.7423 26.499 48.8472 26.1298 48.9013C25.7606 48.9553 25.6707 48.9553 23.4365 49.2925C21.2022 49.6297 16.8263 50.304 14.5346 50.6514C12.243 50.9988 12.168 50.9988 12 51.0442" stroke="#FDB8CD" stroke-width="4" stroke-linecap="round"/>
<path d="M23.8525 46.9572C23.8225 46.9572 23.3725 46.9722 21.5377 47.1148C20.1358 47.2237 17.7846 47.4822 16.5201 47.6207C15.2556 47.7592 15.1507 47.7891 15.1417 47.8121C15.1326 47.835 15.2225 47.85 16.5426 47.2358C17.8627 46.6216 20.4103 45.3778 21.6852 44.722C22.9602 44.0663 22.8852 44.0363 22.8092 44.0209C22.7331 44.0055 22.6582 44.0055 22.2075 44.1478C21.7568 44.2902 20.9325 44.5749 20.0833 44.8683" stroke="#FDB8CD" stroke-width="4" stroke-linecap="round"/>
<path d="M26.9133 42.7754C26.8851 42.7875 26.8204 42.8119 26.6707 42.8341C26.6097 42.8432 26.5449 42.8484 26.4761 42.8424C26.4469 42.8398 26.4313 42.8243 26.419 42.8081C26.3939 42.7749 26.3905 42.703 26.3945 42.622C26.3961 42.5889 26.4065 42.5731 26.4448 42.5648C26.696 42.5105 26.8968 42.6011 27.0343 42.6374C27.1432 42.6777 27.2252 42.7065 27.2717 42.7126C27.2981 42.7146 27.3302 42.7146 27.3633 42.7146" stroke="#FDB8CD" stroke-width="4" stroke-linecap="round"/>
<path d="M23.6568 51.9325C23.644 51.9325 23.6312 51.9325 22.5827 51.8984C21.5341 51.8643 19.4503 51.7961 17.3032 51.7258" stroke="#2B2828" stroke-linecap="round"/>
<path d="M23.3643 53.6256C23.1477 53.5658 22.725 53.4603 22.0913 53.2391C21.8346 53.1495 21.511 52.9886 21.1743 52.8149C20.8375 52.6411 20.5021 52.4473 20.0907 52.2431C19.6793 52.0389 19.2022 51.8301 18.7589 51.6592C18.3155 51.4883 17.9204 51.3616 17.6908 51.2889C17.2652 51.1541 17.0019 51.1483 16.75 51.1145C16.6923 51.1067 16.663 51.0883 16.6775 51.0992C16.8617 51.2389 17.0683 51.3286 17.3349 51.4825C17.4556 51.5521 17.6525 51.6359 18.0058 51.7528C18.3591 51.8697 18.8661 52.0113 19.2129 52.1327C19.5598 52.2542 19.7313 52.3511 19.9538 52.4345C20.4346 52.6149 20.8852 52.6766 21.1598 52.7179C21.4242 52.7577 21.6013 52.8047 21.8798 52.8198C21.9484 52.8236 22.0003 52.8422 22.0085 52.8461C22.1111 52.8953 21.731 52.7975 21.6027 52.7523C21.4869 52.7115 21.347 52.6547 21.1926 52.5868C20.9114 52.4632 20.7596 52.361 20.1927 52.1094C19.8352 51.9507 19.6902 51.8789 19.5322 51.8262C19.2761 51.6982 19.0653 51.6228 18.4795 51.4201C18.3496 51.3743 18.3049 51.3593 18.2588 51.3214" stroke="#FDB8CD" stroke-linecap="round"/>
<path d="M20.2813 52.7235C20.1424 52.6625 19.9933 52.5913 19.7618 52.5051C19.6052 52.4468 19.3655 52.3684 19.0811 52.2747C18.7967 52.181 18.4738 52.0768 18.2772 52.0096C18.0807 51.9425 18.0201 51.9156 17.8982 51.8765C17.7762 51.8374 17.5946 51.787 17.3766 51.7458C17.1586 51.7047 16.9098 51.6744 16.7631 51.6589C16.6164 51.6433 16.5794 51.6433 16.5603 51.6534C16.5413 51.6634 16.5413 51.6836 16.5463 51.7075C16.5791 51.8626 16.7445 52.057 16.8802 52.1558C17.0567 52.2843 17.2507 52.3327 17.4078 52.3716C17.6893 52.4206 17.8997 52.4584 17.9775 52.4754C18.0218 52.4823 18.0756 52.4856 18.131 52.4891" stroke="#FDB8CD" stroke-linecap="round"/>
<path d="M47.2477 26.1006C47.1023 26.2363 46.9416 26.337 46.7656 26.4028C46.5837 26.4683 46.3929 26.4872 46.1933 26.4593C45.9877 26.4312 45.7733 26.3534 45.5502 26.2259C45.327 26.0984 45.0971 25.9078 44.8604 25.6541C44.6266 25.4034 44.4538 25.1624 44.3421 24.931C44.2274 24.6965 44.1647 24.4772 44.1538 24.2732C44.1398 24.0721 44.1732 23.8847 44.2541 23.7108C44.329 23.5368 44.4392 23.3819 44.5846 23.2462C44.7331 23.1076 44.8984 23.0056 45.0803 22.94C45.2562 22.8743 45.4456 22.8539 45.6483 22.8789C45.8479 22.9068 46.0608 22.986 46.2868 23.1166C46.5099 23.2441 46.7384 23.4332 46.9722 23.6838C47.2089 23.9375 47.3832 24.1801 47.4949 24.4116C47.6066 24.643 47.6709 24.8608 47.6878 25.065C47.6987 25.2689 47.6667 25.458 47.5918 25.632C47.5109 25.8059 47.3962 25.9621 47.2477 26.1006Z" fill="#CBCEF7"/>
</svg>
