<svg width="26" height="22" viewBox="0 0 26 22" fill="none" xmlns="http://www.w3.org/2000/svg">
<path d="M26 2.58824C25.043 3.04118 24.0115 3.33882 22.9426 3.48118C24.0363 2.79529 24.8815 1.70824 25.2792 0.401176C24.2476 1.04824 23.1042 1.50118 21.8987 1.76C20.9168 0.647059 19.5373 0 17.9713 0C15.0507 0 12.6644 2.48471 12.6644 5.55176C12.6644 5.99177 12.7142 6.41882 12.8011 6.82C8.37667 6.58706 4.4369 4.37412 1.81453 1.02235C1.35468 1.83765 1.09369 2.79529 1.09369 3.80471C1.09369 5.73294 2.02581 7.44118 3.4675 8.41177C2.58509 8.41177 1.76482 8.15294 1.04398 7.76471C1.04398 7.76471 1.04398 7.76471 1.04398 7.80353C1.04398 10.4953 2.88337 12.7471 5.31931 13.2518C4.87189 13.3812 4.39962 13.4459 3.91491 13.4459C3.57935 13.4459 3.24379 13.4071 2.92065 13.3424C3.59178 15.5294 5.54302 17.16 7.89197 17.1988C6.07744 18.7 3.7782 19.58 1.26769 19.58C0.845124 19.58 0.422562 19.5541 0 19.5024C2.36138 21.0812 5.17017 22 8.17782 22C17.9713 22 23.3528 13.5365 23.3528 6.19882C23.3528 5.95294 23.3528 5.72 23.3403 5.47412C24.3843 4.69765 25.2792 3.71412 26 2.58824Z" fill="white"/>
</svg>
