<svg width="20" height="14" viewBox="0 0 20 14" fill="none" xmlns="http://www.w3.org/2000/svg">
<path d="M20 10L15.5556 14L12.4444 11.2L13.7778 10L15.5556 11.6L18.6667 8.8L20 10ZM9.77778 3.6C10.485 3.6 11.1633 3.85286 11.6634 4.30294C12.1635 4.75303 12.4444 5.36348 12.4444 6C12.4444 6.63652 12.1635 7.24697 11.6634 7.69706C11.1633 8.14714 10.485 8.4 9.77778 8.4C9.07053 8.4 8.39226 8.14714 7.89216 7.69706C7.39206 7.24697 7.11111 6.63652 7.11111 6C7.11111 5.36348 7.39206 4.75303 7.89216 4.30294C8.39226 3.85286 9.07053 3.6 9.77778 3.6ZM9.77778 10C10.2222 10 10.64 9.944 11.04 9.832C10.8 10.4 10.6667 10.976 10.6667 11.6V11.96L9.77778 12C5.33333 12 1.53778 9.512 0 6C1.53778 2.488 5.33333 0 9.77778 0C14.2222 0 18.0178 2.488 19.5556 6C19.3333 6.512 19.0578 7.008 18.7378 7.48C17.9378 7.048 16.9956 6.8 16 6.8C15.3067 6.8 14.6667 6.92 14.0356 7.136C14.16 6.776 14.2222 6.4 14.2222 6C14.2222 4.93913 13.754 3.92172 12.9205 3.17157C12.087 2.42143 10.9565 2 9.77778 2C8.59904 2 7.46858 2.42143 6.63508 3.17157C5.80159 3.92172 5.33333 4.93913 5.33333 6C5.33333 7.06087 5.80159 8.07828 6.63508 8.82843C7.46858 9.57857 8.59904 10 9.77778 10Z" fill="#2B2828"/>
</svg>
